<svg width="105" height="24" viewBox="0 0 105 24" fill="none" xmlns="http://www.w3.org/2000/svg">
<path d="M26.1818 0L32.6615 6.0603L39.2727 12L32.6615 17.9397L26.1818 24L19.7021 17.9397L13.0909 12L19.7021 6.0603L26.1818 0Z" fill="#9FC7DE"/>
<path d="M13.0909 0L19.5706 6.0603L26.1818 12L19.5706 17.9397L13.0909 24L6.61124 17.9397L0 12L6.61124 6.0603L13.0909 0Z" fill="#1565C0"/>
<path d="M40.6255 18.5455V18.2662L42.0218 17.568V8.00291L40.6255 7.30473V7.02545H48.9862V10.0276H48.7069L47.6247 7.98545H43.5927V12.1222H46.3855L47.2582 10.6735H47.5375V14.496H47.2582L46.3855 13.0822H43.5927V17.568L45.1636 18.2662V18.5455H40.6255Z" fill="#E4E3EF"/>
<path d="M51.4343 18.5455V18.2662L52.8307 17.568V8.00291L51.4343 7.30473V7.02545H55.798V7.30473L54.4016 8.00291V17.568L55.798 18.2662V18.5455H51.4343Z" fill="#E4E3EF"/>
<path d="M58.0609 18.5455V18.2662L59.4573 17.568V8.03782L58.0784 7.30473V7.02545H60.6442L67.3118 15.4036V7.968L65.5664 7.30473V7.02545H69.9125V7.30473L68.5336 7.98545V18.6327H67.8878L60.6791 9.53891V17.5855L62.4245 18.2662V18.5455H58.0609Z" fill="#E4E3EF"/>
<path d="M71.0044 18.5455V18.2662L72.1215 17.6902L76.5899 6.93818H77.3753L81.7739 17.6378L82.9433 18.2662V18.5455H78.6146V18.2662L80.1506 17.6727L78.8415 14.4436H74.6L73.3084 17.6727L74.7746 18.2662V18.5455H71.0044ZM75.0015 13.4836H78.4575L76.7295 9.18982L75.0015 13.4836Z" fill="#E4E3EF"/>
<path d="M84.6539 18.5455V18.2662L86.0502 17.568V8.00291L84.6539 7.30473V7.02545H89.192C90.5651 7.02545 91.6648 7.27564 92.491 7.776C93.3288 8.27636 93.7477 9.06764 93.7477 10.1498C93.7477 10.7898 93.5266 11.36 93.0844 11.8604C92.6539 12.3491 92.0604 12.7389 91.304 13.0298C90.5593 13.3207 89.7157 13.4662 88.7731 13.4662H87.6211V17.568L89.192 18.2662V18.5455H84.6539ZM87.6211 7.98545V12.5062H89.1048C90.024 12.5062 90.7455 12.3025 91.2691 11.8953C91.7928 11.4764 92.0546 10.9411 92.0546 10.2895C92.0546 9.47491 91.787 8.88727 91.2517 8.52655C90.728 8.16582 89.9717 7.98545 88.9826 7.98545H87.6211Z" fill="#E4E3EF"/>
<path d="M95.7845 18.5455V18.2662L97.1809 17.568V8.00291L95.7845 7.30473V7.02545H100.323C101.696 7.02545 102.795 7.27564 103.622 7.776C104.459 8.27636 104.878 9.06764 104.878 10.1498C104.878 10.7898 104.657 11.36 104.215 11.8604C103.785 12.3491 103.191 12.7389 102.435 13.0298C101.69 13.3207 100.846 13.4662 99.9038 13.4662H98.7518V17.568L100.323 18.2662V18.5455H95.7845ZM98.7518 7.98545V12.5062H100.235C101.155 12.5062 101.876 12.3025 102.4 11.8953C102.923 11.4764 103.185 10.9411 103.185 10.2895C103.185 9.47491 102.918 8.88727 102.382 8.52655C101.859 8.16582 101.102 7.98545 100.113 7.98545H98.7518Z" fill="#E4E3EF"/>
</svg>
